# xmcd
#
# Track frame offsets:
#	183
#	14388
#	30215
#	46758
#	63763
#	76233
#	88295
#	101478
#	117780
#	130105
#	143595
#	159288
#	172170
#	186020
#
# Disc length: 2674 seconds
# Revision: 3
# Processed by: cddbd v1.5.2PL0 Copyright (c) Steve Scherf et al.
# Submitted via: dBpowerAMP V12.0
#
DISCID=a20a700e
DTITLE=John Lee Hooker - No Friend Around
DYEAR=1948
DGENRE=Blues
TTITLE0=Stomp Boogie
TTITLE1=Black Man Blues
TTITLE2=Helpless Blues
TTITLE3=Goin' Mad Blues
TTITLE4=Morning Blues
TTITLE5=RoLL N' Roll
TTITLE6=No Friend Around
TTITLE7=Low Down Midnite Boogie
TTITLE8=House Rent Boogie
TTITLE9=Wandering Blues
TTITLE10=Landing Blues
TTITLE11=My Baby's Got Something
TTITLE12=Decoration Day Blues
TTITLE13=Do The Boogie
EXTD=
EXTT0=
EXTT1=
EXTT2=
EXTT3=
EXTT4=
EXTT5=
EXTT6=
EXTT7=
EXTT8=
EXTT9=
EXTT10=
EXTT11=
EXTT12=
EXTT13=
PLAYORDER=
